<svg width="40" height="40" viewBox="0 0 40 40" fill="none" xmlns="http://www.w3.org/2000/svg">
<path fill-rule="evenodd" clip-rule="evenodd" d="M20 32C13.382 32 8 26.616 8 20C8 13.384 13.382 8 20 8C26.618 8 32 13.384 32 20C32 26.616 26.618 32 20 32ZM36 16C35.826 16 35.658 16.03 35.49 16.052C35.108 14.55 34.516 13.138 33.744 11.84C33.88 11.736 34.018 11.638 34.142 11.514C35.704 9.952 35.704 7.42 34.142 5.858C32.58 4.296 30.048 4.296 28.486 5.858C28.362 5.982 28.264 6.12 28.16 6.256C26.864 5.484 25.45 4.894 23.948 4.512C23.97 4.342 24 4.176 24 4C24 1.792 22.208 0 20 0C17.792 0 16 1.792 16 4C16 4.176 16.03 4.342 16.052 4.512C14.55 4.894 13.138 5.484 11.84 6.256C11.736 6.12 11.638 5.982 11.514 5.858C9.954 4.296 7.42 4.296 5.858 5.858C4.296 7.42 4.296 9.952 5.858 11.514C5.982 11.638 6.122 11.736 6.256 11.84C5.484 13.138 4.892 14.55 4.512 16.052C4.342 16.03 4.174 16 4 16C1.792 16 0 17.792 0 20C0 22.208 1.792 24 4 24C4.174 24 4.342 23.97 4.512 23.948C4.892 25.45 5.484 26.862 6.256 28.16C6.122 28.264 5.982 28.362 5.858 28.486C4.296 30.048 4.296 32.58 5.858 34.142C7.42 35.704 9.954 35.704 11.514 34.142C11.638 34.018 11.736 33.88 11.84 33.744C13.138 34.516 14.55 35.106 16.052 35.488C16.03 35.658 16 35.824 16 36C16 38.208 17.792 40 20 40C22.208 40 24 38.208 24 36C24 35.824 23.97 35.658 23.948 35.488C25.45 35.106 26.864 34.516 28.16 33.744C28.264 33.88 28.362 34.018 28.486 34.142C30.048 35.704 32.58 35.704 34.142 34.142C35.704 32.58 35.704 30.048 34.142 28.486C34.018 28.362 33.88 28.264 33.744 28.16C34.516 26.862 35.108 25.45 35.49 23.948C35.658 23.97 35.826 24 36 24C38.208 24 40 22.208 40 20C40 17.792 38.208 16 36 16Z" fill="white"/>
</svg>
