<svg width="40" height="40" viewBox="0 0 40 40" fill="none" xmlns="http://www.w3.org/2000/svg">
<path fill-rule="evenodd" clip-rule="evenodd" d="M20 4C11.2 4 4 11.2 4 20C4 28.8 11.2 36 20 36C28.8 36 36 28.8 36 20C36 11.2 28.8 4 20 4ZM30.4446 10.6237L29.0059 9.2344L14.9647 15.1372L9.55549 29.3759L10.9942 30.7652L25.0354 24.8624L30.4446 10.6237ZM24.2923 15.555L18.0951 18.1603L15.7078 24.4446L21.9049 21.8394L24.2923 15.555ZM40 20C40 9 31 0 20 0C9 0 0 9 0 20C0 31 9 40 20 40C31 40 40 31 40 20Z" fill="black"/>
</svg>
