<svg width="40" height="40" viewBox="0 0 40 40" fill="none" xmlns="http://www.w3.org/2000/svg">
<g clip-path="url(#clip0_3076_3889)">
<path fill-rule="evenodd" clip-rule="evenodd" d="M20 25.2856C18.935 25.2856 17.9533 25.6164 17.1442 26.1807L14.8558 22.9C16.3144 21.8826 18.0905 21.2856 20 21.2856C21.9095 21.2856 23.6856 21.8826 25.1442 22.9L22.8558 26.1807C22.0467 25.6164 21.065 25.2856 20 25.2856Z" fill="black"/>
<path fill-rule="evenodd" clip-rule="evenodd" d="M0 6H7V10H4V17.5155C5.4301 16.5583 7.14985 16 9 16C13.9706 16 18 20.0294 18 25C18 29.9706 13.9706 34 9 34C4.02944 34 0 29.9706 0 25V6ZM4 25C4 27.7614 6.23858 30 9 30C11.7614 30 14 27.7614 14 25C14 22.2386 11.7614 20 9 20C6.23858 20 4 22.2386 4 25Z" fill="black"/>
<path fill-rule="evenodd" clip-rule="evenodd" d="M33 6H40V25C40 29.9706 35.9706 34 31 34C26.0294 34 22 29.9706 22 25C22 20.0294 26.0294 16 31 16C32.8501 16 34.5699 16.5583 36 17.5155V10H33V6ZM36 25C36 22.2386 33.7614 20 31 20C28.2386 20 26 22.2386 26 25C26 27.7614 28.2386 30 31 30C33.7614 30 36 27.7614 36 25Z" fill="black"/>
</g>
<defs>
<clipPath id="clip0_3076_3889">
<rect width="40" height="40" fill="white"/>
</clipPath>
</defs>
</svg>
