<svg width="40" height="40" viewBox="0 0 40 40" fill="none" xmlns="http://www.w3.org/2000/svg">
<g clip-path="url(#clip0_475_2442)">
<path fill-rule="evenodd" clip-rule="evenodd" d="M20 12H12V20H8C6.93913 20 5.92172 20.4214 5.17157 21.1716C4.42143 21.9217 4 22.9391 4 24C4 25.0609 4.42143 26.0783 5.17157 26.8284C5.92172 27.5786 6.93913 28 8 28H12V36H36V32C33.8783 32 31.8434 31.1571 30.3431 29.6569C28.8429 28.1566 28 26.1217 28 24C28 21.8783 28.8429 19.8434 30.3431 18.3431C31.8434 16.8429 33.8783 16 36 16V12H28V8C28 6.93913 27.5786 5.92172 26.8284 5.17157C26.0783 4.42143 25.0609 4 24 4C22.9391 4 21.9217 4.42143 21.1716 5.17157C20.4214 5.92172 20 6.93913 20 8V12ZM40 8V20H36C34.9391 20 33.9217 20.4214 33.1716 21.1716C32.4214 21.9217 32 22.9391 32 24C32 25.0609 32.4214 26.0783 33.1716 26.8284C33.9217 27.5786 34.9391 28 36 28H40V40H8V32C5.87827 32 3.84344 31.1571 2.34315 29.6569C0.842855 28.1566 0 26.1217 0 24C0 21.8783 0.842855 19.8434 2.34315 18.3431C3.84344 16.8429 5.87827 16 8 16V8H16C16 5.87827 16.8429 3.84344 18.3431 2.34315C19.8434 0.842855 21.8783 0 24 0C26.1217 0 28.1566 0.842855 29.6569 2.34315C31.1571 3.84344 32 5.87827 32 8H40Z" fill="black"/>
</g>
<defs>
<clipPath id="clip0_475_2442">
<rect width="40" height="40" fill="white"/>
</clipPath>
</defs>
</svg>
